<?xml version="1.0"?>
<svg version="1.1" xmlns="http://www.w3.org/2000/svg" width="400px" height="200px" style="border: dashed 2px #aaa"><path fill="#" d="M41.4892578125,124.658203125q0.09765625-5.1025390625,0.42724609375-10.1806640625t0.57373046875-10.1806640625q0.048828125-1.953125,0.048828125-3.55224609375t0.15869140625-2.77099609375t0.5859375-1.79443359375t1.42822265625-0.62255859375q0.8544921875,0,1.2939453125,0.244140625t0.67138671875,0.62255859375t0.28076171875,0.8544921875t0.048828125,0.96435546875q0,0.7080078125,0.048828125,1.40380859375t0.048828125,1.40380859375q0,5.1513671875-0.28076171875,10.2783203125t-0.28076171875,10.3271484375q0,0.7568359375,0.0244140625,1.52587890625t0.0244140625,1.57470703125q0,0.29296875-0.2685546875,0.48828125t-0.67138671875,0.32958984375t-0.8544921875,0.18310546875t-0.74462890625,0.048828125q-0.341796875,0-0.76904296875-0.048828125t-0.830078125-0.20751953125t-0.68359375-0.37841796875t-0.28076171875-0.5126953125z M42.8564453125,91.552734375q0-0.244140625,0.0732421875-0.54931640625t0.1708984375-0.54931640625q0.048828125-0.29296875,0.146484375-1.0009765625t0.35400390625-1.37939453125t0.7080078125-1.1962890625t1.28173828125-0.52490234375l0.4638671875,0q0.390625,0.09765625,0.79345703125,0.244140625t0.40283203125,0.7080078125q0,0.244140625-0.0244140625,0.4638671875t-0.0732421875,0.48828125q-0.1953125,1.4404296875-0.37841796875,2.2705078125t-0.42724609375,1.25732421875t-0.62255859375,0.54931640625t-0.96435546875,0.1708984375q-0.1953125,0-0.52490234375-0.0244140625t-0.634765625-0.1220703125t-0.52490234375-0.30517578125t-0.2197265625-0.50048828125z M52.272216796875,102.8076171875l0-1.8798828125l0-1.9287109375q0.0244140625-1.953125,0.15869140625-3.74755859375t0.37841796875-2.99072265625q0.146484375-0.6591796875,0.87890625-0.8056640625t1.26953125-0.146484375q1.0009765625,0,1.47705078125,0.244140625t0.62255859375,0.69580078125t0.1220703125,1.07421875t-0.0244140625,1.42822265625q0,1.1474609375-0.048828125,3.1982421875t-0.0732421875,4.541015625l0,1.2451171875q0,1.8798828125,0.048828125,3.8818359375q0.0732421875,2.685546875,0.28076171875,5.13916015625t0.57373046875,4.4189453125t1.025390625,3.01513671875q1.0498046875-0.9521484375,2.099609375-2.67333984375t2.001953125-3.86962890625t1.81884765625-4.52880859375t1.57470703125-4.65087890625t1.20849609375-4.2724609375t0.74462890625-3.3935546875q0.390625-2.001953125,0.52490234375-4.0771484375t0.13427734375-4.6142578125q0.7568359375-0.9033203125,1.171875-1.13525390625t1.318359375-0.23193359375q0.439453125,0,0.89111328125,0.0732421875t0.86669921875,0.341796875l0.341796875,0.537109375l0,0.6103515625q0,4.443359375-0.42724609375,9.02099609375t-0.9033203125,9.2041015625t-0.9033203125,9.27734375t-0.42724609375,9.24072265625q0,0.7080078125,0.06103515625,1.50146484375t0.25634765625,1.50146484375l-0.09765625,0.29296875q-0.341796875,0.5615234375-1.123046875,0.7080078125t-1.3427734375,0.146484375q-1.1962890625,0-1.79443359375-0.35400390625t-0.79345703125-0.9765625t-0.1708984375-1.4404296875t0.0244140625-1.77001953125q0-3.2958984375,0.29296875-6.70166015625t0.7080078125-6.70166015625q-0.390625,1.1474609375-0.927734375,2.77099609375t-1.25732421875,3.2470703125t-1.67236328125,2.978515625t-2.099609375,1.94091796875l0.048828125-0.048828125l-0.1953125,0.09765625l0.048828125,0q-0.7080078125,0.390625-1.30615234375,0.52490234375t-1.40380859375,0.13427734375q-1.611328125,0-2.67333984375-0.9521484375t-1.72119140625-2.45361328125t-0.9765625-3.369140625t-0.45166015625-3.74755859375t-0.13427734375-3.57666015625l0-2.79541015625q0-1.3427734375-0.0244140625-3.1982421875z M60.963623046875,122.2412109375q0.048828125,0,0.048828125-0.048828125l0.048828125,0q-0.048828125,0.048828125-0.09765625,0.048828125z M78.716796875,90.53955078125q-0.06103515625-0.74462890625,0.09765625-1.2939453125t0.634765625-0.9033203125t1.52587890625-0.35400390625l3.9306640625,0q0.8056640625,0,2.11181640625,0.08544921875t2.8076171875,0.25634765625t2.99072265625,0.52490234375t2.72216796875,0.87890625t2.001953125,1.2939453125t0.76904296875,1.81884765625q0,1.4892578125-0.86669921875,2.79541015625t-2.1728515625,2.35595703125t-2.7587890625,1.86767578125t-2.60009765625,1.47705078125q4.541015625,1.0009765625,7.1044921875,4.150390625t2.5634765625,7.861328125q0,2.490234375-0.9521484375,4.91943359375t-2.60009765625,4.38232421875t-3.90625,3.1494140625t-4.84619140625,1.1962890625q-0.341796875,0-0.76904296875-0.0732421875t-0.78125-0.23193359375t-0.6103515625-0.45166015625t-0.25634765625-0.7568359375q0-2.1484375,2.3193359375-2.1484375q0.390625,0,0.91552734375,0.10986328125t0.81787109375,0.45166015625q1.3427734375-0.5615234375,2.45361328125-1.7822265625t1.8798828125-2.72216796875t1.1962890625-3.1494140625t0.42724609375-2.99072265625q0-1.611328125-0.47607421875-3.28369140625t-1.37939453125-3.1005859375t-2.2216796875-2.40478515625t-3.02734375-1.220703125q-0.439453125-0.048828125-0.96435546875-0.0732421875l-1.0498046875-0.048828125t-1.025390625-0.146484375t-0.86669921875-0.390625q0.1953125,4.052734375,0.50048828125,8.0810546875t0.81787109375,8.0810546875q0.1953125,0.1953125,0.2685546875,0.57373046875t0.1220703125,0.8056640625t0.048828125,0.81787109375l0,0.6591796875q0,0.439453125-0.29296875,0.72021484375t-0.69580078125,0.45166015625t-0.8544921875,0.2197265625t-0.79345703125,0.048828125q-1.0986328125,0-1.6845703125-0.29296875t-0.830078125-0.8544921875t-0.3173828125-1.28173828125t-0.1220703125-1.57470703125q-0.6591796875-6.8115234375-0.9521484375-13.4765625t-0.29296875-13.4765625q0-0.8056640625-0.06103515625-1.55029296875z M83.22119140625,89.501953125q0,3.0029296875,0.1953125,6.01806640625t0.341796875,6.01806640625q1.0986328125-0.6591796875,2.880859375-1.55029296875t3.45458984375-1.96533203125t2.86865234375-2.3681640625t1.1962890625-2.8076171875q0-1.1962890625-1.416015625-1.81884765625t-3.2958984375-0.927734375t-3.67431640625-0.37841796875t-2.55126953125-0.2197265625z M114.11328125,121.044921875q-0.0244140625-0.732421875-0.0244140625-1.46484375q0-2.294921875,0.244140625-4.6142578125q0.29296875-3.076171875,0.390625-6.0546875q0.09765625-3.4912109375,0.29296875-7.2509765625q0.1220703125-2.05078125,0.1220703125-4.052734375q0-1.6357421875-0.0732421875-3.2470703125q0.244140625-0.5615234375,0.64697265625-0.7568359375t1.01318359375-0.1953125q0.29296875,0,0.62255859375,0.048828125t0.57373046875,0.244140625q0.341796875,0.048828125,0.84228515625,0.09765625t0.76904296875,0.29296875q0.09765625,0.146484375,0.50048828125,1.0009765625t0.9521484375,2.0751953125t1.1474609375,2.64892578125t1.1474609375,2.7099609375t0.9521484375,2.25830078125t0.50048828125,1.220703125q2.294921875-4.150390625,4.4921875-8.53271484375t4.8095703125-8.26416015625q0.244140625-0.341796875,0.84228515625-0.50048828125t0.98876953125-0.15869140625q1.0498046875,0,1.52587890625,0.50048828125t0.62255859375,1.28173828125q0.09765625,0.48828125,0.1220703125,1.0498046875q0.0244140625,0.29296875-0.0244140625,0.6103515625q-0.09765625,0.9033203125-0.09765625,1.708984375q0,5.6884765625-0.390625,11.29150390625t-0.7080078125,11.31591796875q-0.048828125,1.171875-0.048828125,2.44140625t0.048828125,2.63671875q0.0244140625,0.48828125,0.0244140625,0.9521484375q0,2.1484375-0.3662109375,4.00390625q-0.341796875,0.5615234375-1.123046875,0.7080078125t-1.318359375,0.146484375q-1.1474609375,0-2.197265625-0.537109375l-0.2685546875-0.3173828125l-0.09765625-0.390625t-0.048828125-0.390625q0-3.5400390625,0.25634765625-7.12890625t0.57373046875-7.16552734375t0.67138671875-7.14111328125t0.59814453125-7.12890625q-1.4404296875,2.392578125-2.79541015625,4.87060546875t-2.55126953125,5.04150390625q-0.439453125,1.0009765625-0.84228515625,2.1484375t-0.96435546875,2.05078125q-0.29296875,0.439453125-0.98876953125,0.537109375t-1.20849609375,0.09765625q-0.48828125,0-1.01318359375-0.1708984375t-0.72021484375-0.732421875q-0.9033203125-2.7587890625-1.9287109375-5.3955078125t-2.0751953125-5.3466796875q0,1.806640625,0.0732421875,4.67529296875t0.0732421875,5.94482421875t-0.09765625,5.8837890625t-0.4638671875,4.443359375q-0.09765625,0.6103515625-0.79345703125,0.7568359375t-1.20849609375,0.146484375q-0.390625,0-0.74462890625-0.048828125t-0.69580078125-0.1953125z M142.96264648438,124.4384765625q0-0.146484375,0.09765625-1.03759765625t0.25634765625-2.1728515625t0.35400390625-2.7587890625t0.341796875-2.79541015625t0.25634765625-2.3193359375t0.10986328125-1.3427734375q-0.1953125-0.09765625-0.47607421875-0.28076171875t-0.28076171875-0.42724609375q0-0.341796875,0.32958984375-0.54931640625t0.57373046875-0.30517578125q0.09765625-1.2451171875,0.244140625-3.466796875t0.45166015625-4.79736328125t0.8544921875-5.224609375t1.45263671875-4.8095703125t2.1728515625-3.52783203125t3.125-1.3671875t3.076171875,1.171875t1.98974609375,3.0517578125t1.171875,4.1748046875t0.6103515625,4.5654296875t0.25634765625,4.248046875t0.09765625,3.173828125q0.048828125,0.7568359375,0.3662109375,1.01318359375t0.69580078125,0.35400390625t0.68359375,0.2197265625t0.30517578125,0.6103515625q0,0.5615234375-0.68359375,0.78125t-1.07421875,0.2685546875q0.244140625,3.0517578125,0.67138671875,6.005859375t1.13525390625,5.95703125q0.09765625,0.5615234375,0.2685546875,1.13525390625t0.1708984375,1.11083984375q0,0.390625-0.2685546875,0.64697265625t-0.69580078125,0.40283203125t-0.8544921875,0.1953125t-0.72021484375,0.048828125q-1.0986328125,0-1.85546875-0.4150390625t-1.0009765625-1.5869140625q-0.6591796875-3.1494140625-1.2939453125-6.6162109375q-0.537109375-3.0029296875-0.537109375-5.8349609375q0-0.439453125,0.0244140625-0.87890625q-2.05078125,0-4.1259765625,0.09765625t-3.9794921875,0.732421875q-0.048828125,0.6591796875-0.244140625,2.490234375t-0.439453125,3.9306640625t-0.50048828125,4.01611328125t-0.30517578125,2.72216796875q-0.048828125,0.341796875-0.50048828125,0.64697265625t-0.9765625,0.32958984375t-0.927734375-0.32958984375t-0.40283203125-1.25732421875z M147.52807617188,109.6435546875q1.904296875-0.439453125,3.82080078125-0.5126953125t3.86962890625-0.1708984375q-0.09765625-0.6103515625-0.048828125-1.25732421875t0.048828125-1.30615234375q0-1.4404296875-0.0732421875-3.3447265625t-0.2197265625-3.857421875t-0.37841796875-3.84521484375t-0.52490234375-3.369140625t-0.62255859375-2.35595703125t-0.72021484375-0.87890625q-0.7568359375,0.048828125-1.42822265625,1.30615234375t-1.220703125,3.1982421875t-1.0009765625,4.345703125t-0.7568359375,4.69970703125t-0.50048828125,4.2724609375t-0.244140625,3.076171875z M166.07470703125,90.2587890625q0-0.341796875,0.47607421875-0.52490234375t0.62255859375-0.18310546875l0.9033203125-0.146484375q0.9033203125-0.146484375,1.8310546875-0.25634765625t1.806640625-0.20751953125q3.1005859375-0.390625,6.201171875-0.76904296875t6.25-0.37841796875q0.244140625,0,0.67138671875,0.0244140625t0.8544921875,0.13427734375t0.732421875,0.30517578125t0.30517578125,0.537109375q0,0.244140625-0.23193359375,0.42724609375t-0.54931640625,0.28076171875t-0.64697265625,0.1220703125t-0.52490234375,0.0244140625l-0.42724609375,0t-0.42724609375-0.09765625q-1.2939453125,0-2.55126953125,0.1220703125t-2.55126953125,0.2197265625q0.341796875,0.390625,0.3662109375,1.0986328125t0.048828125,1.220703125q0,8.642578125,0.1220703125,17.1875t0.2197265625,17.2607421875l0,0.048828125q-0.8056640625,0.7080078125-1.37939453125,0.9033203125t-1.15966796875,0.1953125q-0.5615234375,0-1.13525390625-0.20751953125t-1.37939453125-0.89111328125l0-0.048828125l0.1953125-19.1650390625q0-1.904296875-0.048828125-4.19921875t-0.048828125-4.65087890625t0.0732421875-4.55322265625t0.390625-3.8330078125q-1.4404296875,0.146484375-3.0517578125,0.439453125q-1.3916015625,0.244140625-2.6611328125,0.244140625l-0.439453125,0q-0.09765625,0-0.57373046875,0.0244140625t-0.9765625-0.0244140625t-0.9033203125-0.1953125t-0.40283203125-0.48828125z M190.21215820312,91.552734375q0-1.1474609375,0.28076171875-1.67236328125t0.8056640625-0.732421875t1.26953125-0.15869140625t1.74560546875,0.048828125q2.5390625,0,5.126953125,0.78125t4.6630859375,2.28271484375t3.3447265625,3.69873046875t1.26953125,5.0537109375q0,1.904296875-0.54931640625,3.60107421875t-1.55029296875,3.173828125t-2.34375,2.69775390625t-2.9541015625,2.1240234375q0.6591796875,0.6591796875,1.708984375,2.33154296875t2.0751953125,3.564453125t1.81884765625,3.67431640625t0.93994140625,2.685546875l-0.29296875,0.439453125q-0.6591796875,0.390625-1.5869140625,0.4150390625q-0.439453125,0-1.1474609375-0.10986328125t-0.9033203125-0.64697265625q-1.0009765625-2.8076171875-2.18505859375-5.7861328125t-2.91748046875-5.37109375l0-0.048828125q-0.6103515625,0.244140625-1.20849609375,0.47607421875t-1.20849609375,0.42724609375q0.1953125,2.7099609375,0.40283203125,5.33447265625t0.20751953125,5.31005859375q0,0.341796875-0.32958984375,0.54931640625t-0.74462890625,0.32958984375t-0.84228515625,0.1708984375t-0.69580078125,0.048828125q-0.244140625,0-0.69580078125-0.048828125t-0.86669921875-0.1708984375t-0.72021484375-0.35400390625t-0.30517578125-0.62255859375q0-2.7099609375-0.1220703125-5.40771484375t-0.2685546875-5.38330078125q-0.7568359375-0.48828125-0.7568359375-1.26953125q0-0.6103515625,0.5859375-0.830078125q-0.29296875-5.1513671875-0.67138671875-10.2783203125t-0.37841796875-10.3271484375z M194.63110351562,90.7958984375q0.341796875,5.2978515625,0.76904296875,10.4736328125t0.81787109375,10.4736328125q1.708984375-0.48828125,3.18603515625-1.69677734375t2.55126953125-2.72216796875t1.67236328125-3.2958984375t0.59814453125-3.5400390625q0-1.953125-0.78125-3.74755859375t-2.0751953125-3.13720703125q-1.318359375-1.3427734375-3.02734375-2.099609375q-1.513671875-0.6591796875-3.173828125-0.6591796875l-0.439453125,0z M213.71484375,124.658203125q0.09765625-5.1025390625,0.42724609375-10.1806640625t0.57373046875-10.1806640625q0.048828125-1.953125,0.048828125-3.55224609375t0.15869140625-2.77099609375t0.5859375-1.79443359375t1.42822265625-0.62255859375q0.8544921875,0,1.2939453125,0.244140625t0.67138671875,0.62255859375t0.28076171875,0.8544921875t0.048828125,0.96435546875q0,0.7080078125,0.048828125,1.40380859375t0.048828125,1.40380859375q0,5.1513671875-0.28076171875,10.2783203125t-0.28076171875,10.3271484375q0,0.7568359375,0.0244140625,1.52587890625t0.0244140625,1.57470703125q0,0.29296875-0.2685546875,0.48828125t-0.67138671875,0.32958984375t-0.8544921875,0.18310546875t-0.74462890625,0.048828125q-0.341796875,0-0.76904296875-0.048828125t-0.830078125-0.20751953125t-0.68359375-0.37841796875t-0.28076171875-0.5126953125z M215.08203125,91.552734375q0-0.244140625,0.0732421875-0.54931640625t0.1708984375-0.54931640625q0.048828125-0.29296875,0.146484375-1.0009765625t0.35400390625-1.37939453125t0.7080078125-1.1962890625t1.28173828125-0.52490234375l0.4638671875,0q0.390625,0.09765625,0.79345703125,0.244140625t0.40283203125,0.7080078125q0,0.244140625-0.0244140625,0.4638671875t-0.0732421875,0.48828125q-0.1953125,1.4404296875-0.37841796875,2.2705078125t-0.42724609375,1.25732421875t-0.62255859375,0.54931640625t-0.96435546875,0.1708984375q-0.1953125,0-0.52490234375-0.0244140625t-0.634765625-0.1220703125t-0.52490234375-0.30517578125t-0.2197265625-0.50048828125z M224.52221679688,121.044921875q-0.0244140625-0.732421875-0.0244140625-1.46484375q0-2.294921875,0.244140625-4.6142578125q0.29296875-3.076171875,0.390625-6.0546875q0.09765625-3.4912109375,0.29296875-7.2509765625q0.1220703125-2.05078125,0.1220703125-4.052734375q0-1.6357421875-0.0732421875-3.2470703125q0.244140625-0.5615234375,0.64697265625-0.7568359375t1.01318359375-0.1953125q0.29296875,0,0.62255859375,0.048828125t0.57373046875,0.244140625q0.341796875,0.048828125,0.84228515625,0.09765625t0.76904296875,0.29296875q0.09765625,0.146484375,0.50048828125,1.0009765625t0.9521484375,2.0751953125t1.1474609375,2.64892578125t1.1474609375,2.7099609375t0.9521484375,2.25830078125t0.50048828125,1.220703125q2.294921875-4.150390625,4.4921875-8.53271484375t4.8095703125-8.26416015625q0.244140625-0.341796875,0.84228515625-0.50048828125t0.98876953125-0.15869140625q1.0498046875,0,1.52587890625,0.50048828125t0.62255859375,1.28173828125q0.09765625,0.48828125,0.1220703125,1.0498046875q0.0244140625,0.29296875-0.0244140625,0.6103515625q-0.09765625,0.9033203125-0.09765625,1.708984375q0,5.6884765625-0.390625,11.29150390625t-0.7080078125,11.31591796875q-0.048828125,1.171875-0.048828125,2.44140625t0.048828125,2.63671875q0.0244140625,0.48828125,0.0244140625,0.9521484375q0,2.1484375-0.3662109375,4.00390625q-0.341796875,0.5615234375-1.123046875,0.7080078125t-1.318359375,0.146484375q-1.1474609375,0-2.197265625-0.537109375l-0.2685546875-0.3173828125l-0.09765625-0.390625t-0.048828125-0.390625q0-3.5400390625,0.25634765625-7.12890625t0.57373046875-7.16552734375t0.67138671875-7.14111328125t0.59814453125-7.12890625q-1.4404296875,2.392578125-2.79541015625,4.87060546875t-2.55126953125,5.04150390625q-0.439453125,1.0009765625-0.84228515625,2.1484375t-0.96435546875,2.05078125q-0.29296875,0.439453125-0.98876953125,0.537109375t-1.20849609375,0.09765625q-0.48828125,0-1.01318359375-0.1708984375t-0.72021484375-0.732421875q-0.9033203125-2.7587890625-1.9287109375-5.3955078125t-2.0751953125-5.3466796875q0,1.806640625,0.0732421875,4.67529296875t0.0732421875,5.94482421875t-0.09765625,5.8837890625t-0.4638671875,4.443359375q-0.09765625,0.6103515625-0.79345703125,0.7568359375t-1.20849609375,0.146484375q-0.390625,0-0.74462890625-0.048828125t-0.69580078125-0.1953125z M253.51806640625,107.7392578125q0-1.4404296875,0.15869140625-3.4912109375t0.5859375-4.2724609375t1.1474609375-4.4189453125t1.84326171875-3.8818359375t2.685546875-2.6611328125q1.2939453125-0.8056640625,2.978515625-0.8056640625q0.341796875,0,0.7080078125,0.048828125q4.248046875,0.390625,6.53076171875,1.94091796875t3.33251953125,3.9306640625t1.220703125,5.419921875t0.1708984375,6.40869140625q0,2.7099609375-0.50048828125,5.89599609375t-1.77001953125,5.94482421875t-3.50341796875,4.60205078125t-5.67626953125,1.84326171875q-2.099609375,0-3.67431640625-0.76904296875t-2.67333984375-2.05078125t-1.806640625-2.978515625t-1.07421875-3.515625t-0.52490234375-3.67431640625t-0.15869140625-3.515625z M258.47412109375,106.640625q0,1.0498046875,0.0244140625,2.57568359375t0.20751953125,3.21044921875t0.47607421875,3.35693359375t0.86669921875,3.03955078125t1.45263671875,2.24609375t2.1240234375,0.927734375l0.1220703125,0q1.123046875,0,2.001953125-0.8544921875q0.927734375-0.9033203125,1.64794921875-2.1728515625t1.2451171875-2.67333984375t0.93994140625-2.40478515625l-0.09765625,0.2197265625q0.7080078125-2.24609375,0.9521484375-4.60205078125t0.244140625-4.65087890625q0-1.0986328125-0.146484375-2.64892578125t-0.47607421875-3.23486328125t-0.8544921875-3.33251953125t-1.33056640625-2.86865234375t-1.8798828125-1.85546875q-0.78125-0.4638671875-1.7333984375-0.48828125q-0.3662109375,0-0.732421875,0.0732421875q-1.2451171875,0.244140625-2.1240234375,1.220703125t-1.42822265625,2.40478515625t-0.84228515625,3.125t-0.45166015625,3.41796875t-0.18310546875,3.2958984375t-0.0244140625,2.67333984375z M269.48486328125,114.16015625l0-0.048828125l0,0.048828125z M279.92602539062,93.0419921875q0-0.29296875,0.28076171875-0.439453125t0.6103515625-0.2197265625t0.59814453125-0.0732421875l0.2685546875,0q0.8544921875,0,1.23291015625,0.390625t0.91552734375,1.0009765625q3.662109375,5.2978515625,6.7138671875,10.90087890625t5.8837890625,11.34033203125q0.244140625-6.689453125,0.50048828125-13.46435546875t0.64697265625-13.43994140625q0-0.29296875,0.28076171875-0.48828125t0.634765625-0.29296875t0.72021484375-0.1220703125t0.5615234375-0.0244140625q0.29296875,0,0.64697265625,0.0244140625t0.7080078125,0.146484375t0.5859375,0.29296875t0.23193359375,0.4638671875q0.09765625,1.0498046875,0.10986328125,2.11181640625t0.01220703125,2.11181640625q0,7.861328125-0.341796875,15.4052734375t-0.341796875,15.234375l0,1.7578125q0,0.09765625-0.09765625,0.29296875q0.048828125,0.1953125,0.146484375,0.42724609375t0.09765625,0.32958984375q0,0.390625-0.40283203125,0.5859375t-0.87890625,0.30517578125t-0.84228515625,0.10986328125t-0.2685546875,0q-1.2451171875,0-2.099609375-0.68359375t-0.8544921875-1.6357421875q-1.806640625-4.052734375-3.60107421875-8.04443359375t-3.74755859375-7.94677734375q-1.2451171875-2.490234375-2.50244140625-4.99267578125t-2.69775390625-4.84619140625q0.048828125,0.048828125,0.048828125,0.146484375q0.244140625,2.44140625,0.52490234375,4.87060546875t0.42724609375,4.87060546875q0.09765625,2.099609375,0.2197265625,4.248046875t0.390625,4.248046875q0,0.8056640625-0.50048828125,1.025390625t-1.15966796875,0.2197265625q-0.5615234375,0-1.06201171875-0.146484375t-0.59814453125-0.732421875q0-2.24609375-0.1708984375-4.77294921875t-0.3173828125-5.09033203125q-0.244140625-3.3935546875-0.64697265625-6.89697265625t-0.40283203125-6.84814453125q0-0.146484375,0.0244140625-0.30517578125t0.0244140625-0.35400390625q-0.146484375-0.244140625-0.32958984375-0.5126953125t-0.18310546875-0.48828125z M307.0908203125,101.5380859375q0-0.9521484375,0.06103515625-2.79541015625t0.18310546875-3.84521484375t0.3173828125-3.74755859375t0.5615234375-2.50244140625q0.1953125-0.390625,0.59814453125-0.52490234375t0.79345703125-0.13427734375q0.244140625,0,0.81787109375,0.13427734375t0.57373046875,0.52490234375q0,0.6103515625-0.146484375,2.30712890625t-0.2685546875,3.89404296875t-0.1708984375,4.5654296875l0,1.0498046875q0,1.7822265625,0.1220703125,3.3447265625q0.1708984375,2.001953125,0.64697265625,3.2958984375t1.42822265625,1.2939453125q1.2939453125,0,2.4169921875-0.76904296875t2.05078125-2.001953125t1.67236328125-2.7587890625t1.26953125-3.0029296875t0.87890625-2.72216796875t0.50048828125-1.953125q0.146484375-0.8056640625,0.25634765625-2.1484375t0.35400390625-2.63671875t0.86669921875-2.24609375t1.81884765625-0.9521484375q0.7080078125,0,1.35498046875,0.244140625t0.84228515625,1.0498046875q-0.390625,1.4892578125-0.6591796875,4.13818359375t-0.42724609375,5.55419921875t-0.23193359375,5.62744140625t-0.0732421875,4.43115234375q0,1.904296875,0.048828125,4.65087890625t0.1708984375,5.67626953125t0.28076171875,5.70068359375t0.35400390625,4.62646484375q0.1953125,0.390625,0.1953125,0.9033203125q0,0.6103515625-0.244140625,0.9521484375t-0.67138671875,0.5126953125t-0.927734375,0.2197265625t-0.96435546875,0.048828125q-0.7080078125,0-1.57470703125-0.244140625t-1.06201171875-1.0009765625q-0.244140625-0.9033203125-0.40283203125-2.38037109375t-0.23193359375-3.22265625t-0.1220703125-3.64990234375t-0.048828125-3.64990234375t0.0244140625-3.2470703125t0.0244140625-2.45361328125q0-1.85546875,0.0732421875-3.64990234375t0.1708984375-3.64990234375q-0.6103515625,1.2451171875-1.42822265625,2.52685546875t-1.86767578125,2.33154296875t-2.34375,1.72119140625t-2.8076171875,0.67138671875q-1.953125,0-2.978515625-1.0498046875t-1.4892578125-2.60009765625t-0.52490234375-3.2958984375t-0.06103515625-3.16162109375z"/><path fill="#" d=""/></svg>
